# WaveFront *.obj file (generated by CINEMA 4D)

mtllib ./book.mtl

v -2.09999990463257 -9.80000019073486 -6.5
v -2.09999990463257 9.80000019073486 -6.5
v 2.09999990463257 -9.80000019073486 -6.5
v 2.09999990463257 9.80000019073486 -6.5
v 2.09999990463257 -9.80000019073486 6.30000019073486
v 2.09999990463257 9.80000019073486 6.30000019073486
v -2.09999990463257 -9.80000019073486 6.30000019073486
v -2.09999990463257 9.80000019073486 6.30000019073486
# 8 vertices

vn 0 0 -1
vn 1 0 0
vn 0 0 1
vn -1 0 0
vn 0 1 0
vn 0 -1 0
# 6 normals

vt 0 0 0
vt 0 1 0
vt 1 1 0
vt 1 0 0
# 4 texture coordinates

o pages
usemtl default
f 1/1/1 2/2/1 4/3/1 3/4/1
f 3/1/2 4/2/2 6/3/2 5/4/2
f 5/1/3 6/2/3 8/3/3 7/4/3
f 7/1/4 8/2/4 2/3/4 1/4/4
f 2/1/5 8/2/5 6/3/5 4/4/5
f 7/1/6 1/2/6 3/3/6 5/4/6

v -2.5 -10 -6.5
v -2.5 10 -6.5
v -2.09999990463257 -10 -6.5
v -2.09999990463257 10 -6.5
v -2.29999995231628 -10 6.5
v -2.29999995231628 10 6.5
v -2.09999990463257 10 6.30000019073486
v -2.09999990463257 -10 6.30000019073486
v -2.5 -10 6.30000019073486
v -2.5 10 6.30000019073486
v -2.25118947029114 -10 6.49395227432251
v -2.20219159126282 -10 6.47445201873779
v -2.15857863426208 -10 6.44142150878906
v -2.12554788589478 -10 6.39780855178833
v -2.10604763031006 -10 6.34881067276001
v -2.25118947029114 10 6.49395227432251
v -2.20219159126282 10 6.47445201873779
v -2.15857863426208 10 6.44142150878906
v -2.12554788589478 10 6.39780855178833
v -2.10604763031006 10 6.34881067276001
v -2.34881043434143 10 6.49395227432251
v -2.39780831336975 10 6.47445201873779
v -2.44142127037048 10 6.44142150878906
v -2.47445201873779 10 6.39780855178833
v -2.49395251274109 10 6.34881067276001
v -2.34881043434143 -10 6.49395227432251
v -2.39780831336975 -10 6.47445201873779
v -2.44142127037048 -10 6.44142150878906
v -2.47445201873779 -10 6.39780855178833
v -2.49395251274109 -10 6.34881067276001
# 30 vertices

vn 0 0 0
vn 0.12296203523874 0 0.99241137504578
vn 0.24839170277119 0 0.96865969896317
vn -0.99241173267364 0 0.12295925617218
vn -0.96865981817245 0 0.24839101731777
vn 0.49120986461639 0 0.87104123830795
vn 0.70710545778275 0 0.70710813999176
vn 0.87103998661041 0 0.49121206998825
vn 0.96865981817245 0 0.24839101731777
vn 0.99241173267364 0 0.12295925617218
vn -0.87103998661041 0 0.49121206998825
vn -0.70710545778275 0 0.70710813999176
vn -0.49121046066284 0 0.87104094028473
vn -0.24839098751545 0 0.9686598777771
vn -0.12295915931463 0 0.99241173267364
# 15 normals

vt 0.98461538553238 1 0
vt 0.98461538553238 0 0
vt 0.5 0 0
vt 0.5 1 0
vt 0.01538461539894 0 0
vt 0.01538461539894 1 0
vt 0.41410255432129 0 0
vt 0.41410255432129 1 0
vt -0.07051282376051 0 0
vt -0.07051282376051 1 0
vt 0.3282051384449 0 0
vt 0.3282051384449 1 0
vt 0.24230769276619 0 0
vt 0.24230769276619 1 0
vt 0.15641026198864 0 0
vt 0.15641026198864 1 0
vt 0.07051282376051 0 0
vt 0.07051282376051 1 0
vt -0.01538461446762 0 0
vt -0.01538461446762 1 0
vt -0.15641026198864 0 0
vt -0.15641026198864 1 0
vt -0.24230769276619 0 0
vt -0.24230769276619 1 0
vt -0.3282051384449 0 0
vt -0.3282051384449 1 0
vt -0.41410255432129 0 0
vt -0.41410255432129 1 0
vt -0.5 0 0
vt -0.5 1 0
# 30 texture coordinates

o cover_last
usemtl default
f 9/1/1 10/2/1 12/3/1 11/4/1
f 11/1/2 12/2/2 15/5/2 16/6/2
f 13/7/1 14/8/1 14/8/1 13/7/1
f 17/9/4 18/10/4 10/3/4 9/4/4
f 10/1/5 18/2/5 33/2/5 32/3/5 31/4/5 30/3/5 29/4/5 14/3/7 14/2/5 24/3/5 25/2/5 26/1/5 27/2/5 28/3/5 15/1/5 12/4/5
f 13/2/6 34/3/6 35/2/6 36/1/6 37/2/6 38/3/6 17/1/6 9/2/6 11/3/6 16/2/6 23/2/6 22/3/6 21/4/6 20/2/6 19/3/6 13/4/7
f 13/7/8 19/11/9 24/12/9 14/8/8
f 17/9/10 38/13/11 33/14/11 18/10/10
f 19/11/9 20/15/12 25/16/12 24/12/9
f 20/15/12 21/17/13 26/18/13 25/16/12
f 21/17/13 22/19/14 27/20/14 26/18/13
f 22/19/14 23/21/15 28/22/15 27/20/14
f 23/21/15 16/23/16 15/24/16 28/22/15
f 38/13/11 37/25/17 32/26/17 33/14/11
f 37/25/17 36/27/18 31/28/18 32/26/17
f 36/27/18 35/29/19 30/30/19 31/28/18
f 35/29/19 34/31/20 29/32/20 30/30/19
f 34/31/20 13/33/21 14/34/21 29/32/20

v 2.09999990463257 -10 -6.5
v 2.09999990463257 10 -6.5
v 2.5 -10 -6.5
v 2.5 10 -6.5
v 2.29999995231628 -10 6.5
v 2.29999995231628 10 6.5
v 2.5 10 6.30000019073486
v 2.5 -10 6.30000019073486
v 2.09999990463257 -10 6.30000019073486
v 2.09999990463257 10 6.30000019073486
v 2.34881043434143 -10 6.49395227432251
v 2.39780831336975 -10 6.47445201873779
v 2.44142127037048 -10 6.44142150878906
v 2.47445201873779 -10 6.39780855178833
v 2.49395251274109 -10 6.34881067276001
v 2.34881043434143 10 6.49395227432251
v 2.39780831336975 10 6.47445201873779
v 2.44142127037048 10 6.44142150878906
v 2.47445201873779 10 6.39780855178833
v 2.49395251274109 10 6.34881067276001
v 2.25118947029114 10 6.49395227432251
v 2.20219159126282 10 6.47445201873779
v 2.15857863426208 10 6.44142150878906
v 2.12554788589478 10 6.39780855178833
v 2.10604763031006 10 6.34881067276001
v 2.25118947029114 -10 6.49395227432251
v 2.20219159126282 -10 6.47445201873779
v 2.15857863426208 -10 6.44142150878906
v 2.12554788589478 -10 6.39780855178833
v 2.10604763031006 -10 6.34881067276001
# 30 vertices

# 0 normal

# 0 texture coordinate

o cover_first
usemtl default
f 39/1/1 40/2/1 42/3/1 41/4/1
f 41/1/2 42/2/2 45/5/2 46/6/2
f 43/7/1 44/8/1 44/8/1 43/7/1
f 47/9/4 48/10/4 40/3/4 39/4/4
f 40/1/5 48/2/5 63/2/5 62/3/5 61/4/5 60/3/5 59/4/5 44/3/7 44/2/5 54/3/5 55/2/5 56/1/5 57/2/5 58/3/5 45/1/5 42/4/5
f 43/2/6 64/3/6 65/2/6 66/1/6 67/2/6 68/3/6 47/1/6 39/2/6 41/3/6 46/2/6 53/2/6 52/3/6 51/4/6 50/2/6 49/3/6 43/4/7
f 43/7/8 49/11/9 54/12/9 44/8/8
f 47/9/10 68/13/11 63/14/11 48/10/10
f 49/11/9 50/15/12 55/16/12 54/12/9
f 50/15/12 51/17/13 56/18/13 55/16/12
f 51/17/13 52/19/14 57/20/14 56/18/13
f 52/19/14 53/21/15 58/22/15 57/20/14
f 53/21/15 46/23/16 45/24/16 58/22/15
f 68/13/11 67/25/17 62/26/17 63/14/11
f 67/25/17 66/27/18 61/28/18 62/26/17
f 66/27/18 65/29/19 60/30/19 61/28/18
f 65/29/19 64/31/20 59/32/20 60/30/19
f 64/31/20 43/33/21 44/34/21 59/32/20

v -2.09999990463257 -10 -6.90000009536743
v -2.09999990463257 10 -6.90000009536743
v 2.09999990463257 10 -6.90000009536743
v 2.09999990463257 -10 -6.90000009536743
v -2.4879047870636 10 -6.59762096405029
v -2.44890427589416 10 -6.69561672210693
v -2.38284277915955 10 -6.7828426361084
v -2.2956166267395 10 -6.84890413284302
v -2.19762086868286 10 -6.88790464401245
v -2.4879047870636 -10 -6.59762096405029
v -2.44890427589416 -10 -6.69561672210693
v -2.38284277915955 -10 -6.7828426361084
v -2.2956166267395 -10 -6.84890413284302
v -2.19762086868286 -10 -6.88790464401245
v 2.19762086868286 10 -6.88790464401245
v 2.2956166267395 10 -6.84890413284302
v 2.38284277915955 10 -6.7828426361084
v 2.44890427589416 10 -6.69561672210693
v 2.4879047870636 10 -6.59762096405029
v 2.19762086868286 -10 -6.88790464401245
v 2.2956166267395 -10 -6.84890413284302
v 2.38284277915955 -10 -6.7828426361084
v 2.44890427589416 -10 -6.69561672210693
v 2.4879047870636 -10 -6.59762096405029
v -2.09999990463257 -9.31748294830322 -6.90000009536743
v 2.09999990463257 -9.31748294830322 -6.90000009536743
v -2.5 -9.20612144470215 -6.5
v -2.09999990463257 -9.20612144470215 -6.90000009536743
v 2.09999990463257 -9.20612144470215 -6.90000009536743
v -2.5 -8.95171165466309 -6.5
v -2.09999990463257 -8.95171165466309 -6.90000009536743
v -2.09999990463257 -8.92456722259521 -6.90000009536743
v 2.09999990463257 -8.92456722259521 -6.90000009536743
v 2.5 -8.92456722259521 -6.5
v -2.09999990463257 -9.20612144470215 -6.80000019073486
v 2.09999990463257 -9.20612144470215 -6.80000019073486
v -2.09999990463257 -8.95171165466309 -6.80000019073486
v -2.09999990463257 -8.92456722259521 -6.80000019073486
v 2.09999990463257 -8.92456722259521 -6.80000019073486
# 39 vertices

vn -0.992411673069 0 -0.12295963615179
vn -0.992411673069 0 -0.12295964360237
vn -0.96865993738174 0 -0.24839055538177
vn -0.98258805274963 0 -0.18579740822315
vn 0.1732243001461 0 -0.98488241434097
vn 0.12295913696289 0 -0.99241173267364
vn 0.12295912206173 0 -0.99241173267364
vn -0.87104040384293 0 -0.49121135473251
vn -0.70710647106171 0 -0.7071071267128
vn -0.49121156334877 0 -0.87104028463364
vn -0.24839095771313 0 -0.9686598777771
vn -0.16483992338181 0 -0.98632031679153
vn -0.12295910716057 0 -0.99241173267364
vn 0.24839095771313 0 -0.9686598777771
vn 0.49121156334877 0 -0.87104028463364
vn 0.70710647106171 0 -0.7071071267128
vn 0.87104040384293 0 -0.49121135473251
vn 0.96865999698639 0 -0.24839055538177
vn 0.97839856147766 0 -0.20672757923603
vn 0.992411673069 0 -0.12295963615179
vn 0.12295910716057 0 -0.99241173267364
vn -0.12295911461115 0 -0.99241173267364
vn -0.992411673069 0 -0.12295964360237
vn -0.992411673069 0 -0.12295962870121
vn 0.992411673069 0 -0.12295964360237
vn 0.12295911461115 0 -0.99241173267364
# 26 normals

vt 0.07999999821186 0.05377173423767 0
vt 0.07999999821186 1 0
vt 0.9200000166893 1 0
vt 0.9200000166893 0.05377173423767 0
vt 1 0.05377161502838 0
vt -0 1 0
vt -0 0.05241441726685 0
vt -0 0.03969395160675 0
vt 0.1799999922514 1 0
vt 0.1799999922514 0 0
vt 1.10000002384186 0 0
vt 0.9200000166893 0.03412592411041 0
vt 0.9200000166893 0.03969407081604 0
vt 0.35999998450279 1 0
vt 0.35999998450279 0 0
vt 0.54000002145767 1 0
vt 0.54000002145767 0 0
vt 0.71999996900558 1 0
vt 0.71999996900558 0 0
vt 0.89999997615814 1 0
vt 0.89999997615814 0 0
vt 1.08000004291534 1 0
vt 1.08000004291534 0.05377173423767 0
vt 1.10000002384186 1 0
vt 1.27999997138977 1 0
vt 1.27999997138977 0 0
vt 1.46000003814697 1 0
vt 1.46000003814697 0 0
vt 1.63999998569489 1 0
vt 1.63999998569489 0 0
vt 1.82000005245209 1 0
vt 1.82000005245209 0 0
vt 2 1 0
vt 2 0.05377161502838 0
vt -0 0 0
vt 1.08000004291534 0.05241453647614 0
vt 1.08000004291534 0.03969407081604 0
vt 1.08000004291534 0.03412592411041 0
vt 0.07999999821186 0.03412592411041 0
vt 0.9200000166893 0 0
vt 0.07999999821186 0 0
vt 0.07999999821186 0.03969407081604 0
vt 2 0 0
vt 1.08000004291534 0 0
vt 0.07999999821186 0.05241453647614 0
# 45 texture coordinates

o back
usemtl default
f 100/35/1 70/36/1 71/37/1 101/38/1
f 41/4/7 102/39/7 42/3/7 41/4/7
f 41/1/3 42/2/3 10/3/3 9/4/3
f 9/1/7 10/2/7 10/40/7 98/41/7 95/42/7 9/69/7
f 70/1/5 77/2/5 76/3/5 75/4/5 74/2/5 73/3/5 10/2/7 10/2/7 42/3/7 42/2/5 87/2/5 86/3/5 85/4/5 84/2/5 83/3/5 71/4/5
f 9/1/7 9/1/6 78/2/6 79/3/6 80/4/6 81/2/6 82/3/6 69/4/6 72/2/6 88/4/6 89/1/6 90/2/6 91/3/6 92/4/6 41/3/7 41/4/7
f 10/40/23 73/43/24 78/44/25 9/69/44 95/42/45 98/41/22
f 71/37/42 83/58/35 88/45/26 72/74/47 94/46/27 97/47/28 101/38/42
f 73/43/24 74/48/29 79/49/29 78/44/25
f 74/48/29 75/50/30 80/51/30 79/49/29
f 75/50/30 76/52/31 81/53/31 80/51/30
f 76/52/31 77/54/32 82/55/33 81/53/31
f 77/54/32 70/56/34 100/57/34 99/70/43 96/71/34 93/72/34 69/78/43 82/55/33
f 83/58/35 84/59/36 89/60/36 88/45/26
f 84/59/36 85/61/37 90/62/37 89/60/36
f 85/61/37 86/63/38 91/64/38 90/62/37
f 86/63/38 87/65/39 92/66/40 91/64/38
f 87/65/39 42/67/41 102/68/41 41/77/46 92/66/40
f 97/47/1 94/46/1 72/74/1 69/75/1 93/73/1 96/76/1
f 107/38/1 104/47/1 103/76/1 105/79/1 106/35/7
f 101/2/6 107/3/6 106/4/6 100/1/6
f 100/2/2 106/3/2 105/4/2 99/1/2
f 99/2/2 105/3/2 103/4/2 96/1/2
f 96/2/5 103/3/5 104/4/5 97/1/5
f 97/2/4 104/3/4 107/4/4 101/1/4

