# WaveFront *.obj file (generated by CINEMA 4D)

mtllib ./shelve_stage.mtl

v 30 -2.5 25
v 30 2.5 25
v -30 -2.5 25
v -30 2.5 25
v -30 -2.5 -26.25
v 30 -2.5 -26.25
v -30 -1.25 -27.5
v -30 1.25 -27.5
v 30 1.25 -27.5
v 30 -1.25 -27.5
v -30 2.5 -26.25
v 30 2.5 -26.25
v -30 -2.49708819389343 -26.33526992797852
v -30 -2.48805952072144 -26.42236328125
v -30 -2.47251868247986 -26.51066970825195
v -30 -2.45014548301697 -26.59950065612793
v -30 -2.42071294784546 -26.6880989074707
v -30 -2.38410401344299 -26.77565002441406
v -30 -2.34032559394836 -26.86130142211914
v -30 -2.28951692581177 -26.94419288635254
v -30 -2.23195505142212 -27.02347564697266
v -30 -2.16805076599121 -27.09834098815918
v -30 -2.09834122657776 -27.16805076599121
v -30 -2.02347564697266 -27.23195457458496
v -30 -1.9441933631897 -27.28951644897461
v -30 -1.86130213737488 -27.3403263092041
v -30 -1.77565014362335 -27.38410377502441
v -30 -1.68809974193573 -27.42071342468262
v -30 -1.59950113296509 -27.45014572143555
v -30 -1.51066899299622 -27.47251892089844
v -30 -1.42236256599426 -27.48805999755859
v -30 -1.33527064323425 -27.4970874786377
v 30 -2.49708819389343 -26.33526992797852
v 30 -2.48805952072144 -26.42236328125
v 30 -2.47251868247986 -26.51066970825195
v 30 -2.45014548301697 -26.59950065612793
v 30 -2.42071294784546 -26.6880989074707
v 30 -2.38410401344299 -26.77565002441406
v 30 -2.34032559394836 -26.86130142211914
v 30 -2.28951692581177 -26.94419288635254
v 30 -2.23195505142212 -27.02347564697266
v 30 -2.16805076599121 -27.09834098815918
v 30 -2.09834122657776 -27.16805076599121
v 30 -2.02347564697266 -27.23195457458496
v 30 -1.9441933631897 -27.28951644897461
v 30 -1.86130213737488 -27.3403263092041
v 30 -1.77565014362335 -27.38410377502441
v 30 -1.68809974193573 -27.42071342468262
v 30 -1.59950113296509 -27.45014572143555
v 30 -1.51066899299622 -27.47251892089844
v 30 -1.42236256599426 -27.48805999755859
v 30 -1.33527064323425 -27.4970874786377
v -30 1.33527064323425 -27.4970874786377
v -30 1.42236256599426 -27.48805999755859
v -30 1.51066899299622 -27.47251892089844
v -30 1.59950113296509 -27.45014572143555
v -30 1.68809974193573 -27.42071342468262
v -30 1.77565014362335 -27.38410377502441
v -30 1.86130213737488 -27.3403263092041
v -30 1.9441933631897 -27.28951644897461
v -30 2.02347564697266 -27.23195457458496
v -30 2.09834122657776 -27.16805076599121
v -30 2.16805076599121 -27.09834098815918
v -30 2.23195505142212 -27.02347564697266
v -30 2.28951692581177 -26.94419288635254
v -30 2.34032559394836 -26.86130142211914
v -30 2.38410401344299 -26.77565002441406
v -30 2.42071294784546 -26.6880989074707
v -30 2.45014548301697 -26.59950065612793
v -30 2.47251868247986 -26.51066970825195
v -30 2.48805952072144 -26.42236328125
v -30 2.49708819389343 -26.33526992797852
v 30 1.33527064323425 -27.4970874786377
v 30 1.42236256599426 -27.48805999755859
v 30 1.51066899299622 -27.47251892089844
v 30 1.59950113296509 -27.45014572143555
v 30 1.68809974193573 -27.42071342468262
v 30 1.77565014362335 -27.38410377502441
v 30 1.86130213737488 -27.3403263092041
v 30 1.9441933631897 -27.28951644897461
v 30 2.02347564697266 -27.23195457458496
v 30 2.09834122657776 -27.16805076599121
v 30 2.16805076599121 -27.09834098815918
v 30 2.23195505142212 -27.02347564697266
v 30 2.28951692581177 -26.94419288635254
v 30 2.34032559394836 -26.86130142211914
v 30 2.38410401344299 -26.77565002441406
v 30 2.42071294784546 -26.6880989074707
v 30 2.45014548301697 -26.59950065612793
v 30 2.47251868247986 -26.51066970825195
v 30 2.48805952072144 -26.42236328125
v 30 2.49708819389343 -26.33526992797852
# 92 vertices

vn 0 0 -1
vn 1 0 0
vn 0 0 1
vn -1 0 0
vn 0 1 0
vn 0 -1 0
vn 0 0 0
vn 0 0.0341362953186 -0.99941718578339
vn 0 0.06866029649973 -0.99764007329941
vn 0 -0.99941748380661 -0.03412820771337
vn 0 -0.99763995409012 -0.06866216659546
vn 0 0.13830137252808 -0.99039018154144
vn 0 0.20891672372818 -0.97793340682983
vn 0 0.27993673086166 -0.96001845598221
vn 0 0.35077041387558 -0.93646150827408
vn 0 0.42075446248055 -0.90717452764511
vn 0 0.48922279477119 -0.87215882539749
vn 0 0.55548387765884 -0.83152729272842
vn 0 0.61885040998459 -0.78550887107849
vn 0 0.67869520187378 -0.73442006111145
vn 0 0.734419465065 -0.67869585752487
vn 0 0.78550815582275 -0.6188513636589
vn 0 0.83153134584427 -0.55547779798508
vn 0 0.87215882539749 -0.48922282457352
vn 0 0.90717417001724 -0.42075523734093
vn 0 0.93646258115768 -0.35076746344566
vn 0 0.96001750230789 -0.2799399793148
vn 0 0.97793334722519 -0.20891700685024
vn 0 0.99038952589035 -0.13830594718456
vn 0 0.99763995409012 -0.06866216659546
vn 0 0.99941748380661 -0.03412820771337
vn 0 -0.99038952589035 -0.13830594718456
vn 0 -0.97793334722519 -0.20891700685024
vn 0 -0.96001750230789 -0.2799399793148
vn 0 -0.93646258115768 -0.35076746344566
vn 0 -0.90717417001724 -0.42075523734093
vn 0 -0.87215882539749 -0.48922282457352
vn 0 -0.83153134584427 -0.55547779798508
vn 0 -0.78550815582275 -0.6188513636589
vn 0 -0.734419465065 -0.67869585752487
vn 0 -0.67869520187378 -0.73442006111145
vn 0 -0.61885040998459 -0.78550887107849
vn 0 -0.55548387765884 -0.83152729272842
vn 0 -0.48922279477119 -0.87215882539749
vn 0 -0.42075446248055 -0.90717452764511
vn 0 -0.35077041387558 -0.93646150827408
vn 0 -0.27993673086166 -0.96001845598221
vn 0 -0.20891672372818 -0.97793340682983
vn 0 -0.13830851018429 -0.99038916826248
vn 0 -0.06866341084242 -0.99763989448547
vn 0 -0.03412813320756 -0.99941748380661
# 51 normals

vt 0 0.25 0
vt 0 0.75 0
vt 1 0.75 0
vt 1 0.25 0
vt 0 0 0
vt 0 1 0
vt 1 1 0
vt 1 0 0
vt 0 0.02380955219269 0
vt 1 0.02380955219269 0
vt 0 0.97619044780731 0
vt 1 0.97619044780731 0
vt 0 0.76303851604462 0
vt 1 0.76303851604462 0
vt 0 0.98922902345657 0
vt 1 0.98922902345657 0
vt 0 0.77607715129852 0
vt 1 0.77607715129852 0
vt 0 0.78911566734314 0
vt 1 0.78911566734314 0
vt 0 0.80215418338776 0
vt 1 0.80215418338776 0
vt 0 0.81519275903702 0
vt 1 0.81519275903702 0
vt 0 0.82823133468628 0
vt 1 0.82823133468628 0
vt 0 0.8412698507309 0
vt 1 0.8412698507309 0
vt 0 0.85430836677551 0
vt 1 0.85430836677551 0
vt 0 0.86734700202942 0
vt 1 0.86734700202942 0
vt 0 0.88038551807404 0
vt 1 0.88038551807404 0
vt 0 0.89342403411865 0
vt 1 0.89342403411865 0
vt 0 0.90646260976791 0
vt 1 0.90646260976791 0
vt 0 0.91950118541718 0
vt 1 0.91950118541718 0
vt 0 0.93253970146179 0
vt 1 0.93253970146179 0
vt 0 0.94557827711105 0
vt 1 0.94557827711105 0
vt 0 0.95861679315567 0
vt 1 0.95861679315567 0
vt 0 0.97165536880493 0
vt 1 0.97165536880493 0
vt 0 0.98469388484955 0
vt 1 0.98469388484955 0
vt 0 0.99773246049881 0
vt 1 0.99773246049881 0
vt 0 1.01077103614807 0
vt 1 1.01077103614807 0
vt 0 1.02380955219269 0
vt 1 1.02380955219269 0
vt 0 1.00226759910583 0
vt 1 1.00226759910583 0
vt 0 1.01530611515045 0
vt 1 1.01530611515045 0
vt 0 1.02834463119507 0
vt 1 1.02834463119507 0
vt 0 1.04138326644897 0
vt 1 1.04138326644897 0
vt 0 1.05442178249359 0
vt 1 1.05442178249359 0
vt 0 1.06746029853821 0
vt 1 1.06746029853821 0
vt 0 1.08049881458282 0
vt 1 1.08049881458282 0
vt 0 1.09353744983673 0
vt 1 1.09353744983673 0
vt 0 1.10657596588135 0
vt 1 1.10657596588135 0
vt 0 1.11961448192596 0
vt 1 1.11961448192596 0
vt 0 1.13265299797058 0
vt 1 1.13265299797058 0
vt 0 1.14569163322449 0
vt 1 1.14569163322449 0
vt 0 1.1587301492691 0
vt 1 1.1587301492691 0
vt 0 1.17176866531372 0
vt 1 1.17176866531372 0
vt 0 1.18480730056763 0
vt 1 1.18480730056763 0
vt 0 1.19784581661224 0
vt 1 1.19784581661224 0
vt 0 1.21088433265686 0
vt 1 1.21088433265686 0
vt 0 1.22392296791077 0
vt 1 1.22392296791077 0
vt 0 1.23696148395538 0
vt 1 1.23696148395538 0
vt 0 1.25 0
vt 1 1.25 0
# 96 texture coordinates

o stage_2
usemtl default
f 7/1/1 8/2/1 9/3/1 10/4/1
f 6/6/2 33/7/2 34/8/2 35/6/2 36/7/2 37/6/2 38/7/2 39/7/2 40/8/2 41/5/2 42/6/2 43/7/2 44/8/2 45/6/2 46/7/2 47/6/2 48/7/2 49/7/2 50/8/2 51/5/2 52/7/2 10/8/2 9/6/2 73/7/2 74/6/2 75/7/2 76/6/2 77/6/2 78/7/2 79/6/2 80/7/2 81/7/2 82/6/2 83/7/2 84/8/2 85/6/2 86/7/2 87/8/2 88/6/2 89/7/2 90/6/2 91/7/2 92/5/2 12/7/2 2/7/2 1/8/2
f 1/5/3 2/6/3 4/7/3 3/8/3
f 3/5/4 4/6/4 11/7/4 72/6/4 71/7/4 70/8/4 69/7/4 68/6/4 67/7/4 66/8/4 65/7/4 64/8/4 63/5/4 62/6/4 61/6/4 60/7/4 59/6/4 58/7/4 57/8/4 56/6/4 55/7/4 54/7/4 53/8/4 8/8/4 7/7/4 32/6/4 31/7/4 30/6/4 29/7/4 28/7/4 27/8/4 26/5/4 25/7/4 24/8/4 23/5/4 22/6/4 21/7/4 20/8/4 19/6/4 18/7/4 17/6/4 16/7/4 15/8/4 14/6/4 13/7/4 5/5/4
f 11/9/5 4/6/5 2/7/5 12/10/5
f 3/5/6 5/11/6 6/12/6 1/8/6
f 8/2/8 53/13/9 73/14/9 9/3/8
f 5/11/10 13/15/11 33/16/11 6/12/10
f 53/13/9 54/17/12 74/18/12 73/14/9
f 54/17/12 55/19/13 75/20/13 74/18/12
f 55/19/13 56/21/14 76/22/14 75/20/13
f 56/21/14 57/23/15 77/24/15 76/22/14
f 57/23/15 58/25/16 78/26/16 77/24/15
f 58/25/16 59/27/17 79/28/17 78/26/16
f 59/27/17 60/29/18 80/30/18 79/28/17
f 60/29/18 61/31/19 81/32/19 80/30/18
f 61/31/19 62/33/20 82/34/20 81/32/19
f 62/33/20 63/35/21 83/36/21 82/34/20
f 63/35/21 64/37/22 84/38/22 83/36/21
f 64/37/22 65/39/23 85/40/23 84/38/22
f 65/39/23 66/41/24 86/42/24 85/40/23
f 66/41/24 67/43/25 87/44/25 86/42/24
f 67/43/25 68/45/26 88/46/26 87/44/25
f 68/45/26 69/47/27 89/48/27 88/46/26
f 69/47/27 70/49/28 90/50/28 89/48/27
f 70/49/28 71/51/29 91/52/29 90/50/28
f 71/51/29 72/53/30 92/54/30 91/52/29
f 72/53/30 11/55/31 12/56/31 92/54/30
f 13/15/11 14/57/32 34/58/32 33/16/11
f 14/57/32 15/59/33 35/60/33 34/58/32
f 15/59/33 16/61/34 36/62/34 35/60/33
f 16/61/34 17/63/35 37/64/35 36/62/34
f 17/63/35 18/65/36 38/66/36 37/64/35
f 18/65/36 19/67/37 39/68/37 38/66/36
f 19/67/37 20/69/38 40/70/38 39/68/37
f 20/69/38 21/71/39 41/72/39 40/70/38
f 21/71/39 22/73/40 42/74/40 41/72/39
f 22/73/40 23/75/41 43/76/41 42/74/40
f 23/75/41 24/77/42 44/78/42 43/76/41
f 24/77/42 25/79/43 45/80/43 44/78/42
f 25/79/43 26/81/44 46/82/44 45/80/43
f 26/81/44 27/83/45 47/84/45 46/82/44
f 27/83/45 28/85/46 48/86/46 47/84/45
f 28/85/46 29/87/47 49/88/47 48/86/46
f 29/87/47 30/89/48 50/90/48 49/88/47
f 30/89/48 31/91/49 51/92/49 50/90/48
f 31/91/49 32/93/50 52/94/50 51/92/49
f 32/93/50 7/95/51 10/96/51 52/94/50

